<svg width="468" height="23" viewBox="0 0 468 23" fill="none" xmlns="http://www.w3.org/2000/svg">
<path d="M0 0H78C78 12.4264 60.5391 22.5 39 22.5C17.4609 22.5 0 12.4264 0 0Z" fill="#F5DDE1"/>
<path d="M78 0H156C156 12.4264 138.539 22.5 117 22.5C95.4609 22.5 78 12.4264 78 0Z" fill="#F5DDE1"/>
<path d="M156 0H234C234 12.4264 216.539 22.5 195 22.5C173.461 22.5 156 12.4264 156 0Z" fill="#F5DDE1"/>
<path d="M234 0H312C312 12.4264 294.539 22.5 273 22.5C251.461 22.5 234 12.4264 234 0Z" fill="#F5DDE1"/>
<path d="M312 0H390C390 12.4264 372.539 22.5 351 22.5C329.461 22.5 312 12.4264 312 0Z" fill="#F5DDE1"/>
<path d="M390 0H468C468 12.4264 450.539 22.5 429 22.5C407.461 22.5 390 12.4264 390 0Z" fill="#F5DDE1"/>
</svg>
